<svg width="76" height="54" viewBox="0 0 76 54" fill="none" xmlns="http://www.w3.org/2000/svg">
  <path d="M5.50361 44.8736H70.1156C70.2031 44.8736 70.2888 44.8811 70.3751 44.8867V6.30838C70.3751 3.7224 68.2787 1.62598 65.6927 1.62598H9.92654C7.34056 1.62598 5.24414 3.7224 5.24414 6.30838V44.8867C5.33042 44.8805 5.41608 44.8736 5.50361 44.8736Z" fill="white"/>
  <path d="M63.6748 4.65771H11.4788C9.0584 4.65771 7.09619 6.63408 7.09619 9.07198V43.6729C7.17695 43.6676 7.33905 37.9905 7.33905 43.6605H67.8145C67.8965 43.6605 67.9766 43.6676 68.0574 43.6729V9.07257C68.0574 6.63408 66.0952 4.65771 63.6748 4.65771Z" fill="#F7D145"/>
  <path d="M43.0158 9.42065H32.4568C31.3776 9.42065 30.5029 10.2954 30.5029 11.3745V38.4892C30.5029 39.5683 31.3776 40.443 32.4568 40.443H43.0152C44.0943 40.443 44.969 39.5683 44.969 38.4892V11.3745C44.9697 10.2954 44.095 9.42065 43.0158 9.42065Z" fill="white"/>
  <path d="M62.6919 9.42065H52.1336C51.0544 9.42065 50.1797 10.2954 50.1797 11.3745V38.4892C50.1797 39.5683 51.0544 40.443 52.1336 40.443H62.6919C63.7711 40.443 64.6458 39.5683 64.6458 38.4892V11.3745C64.6458 10.2954 63.7711 9.42065 62.6919 9.42065Z" fill="white"/>
  <path d="M23.4854 9.42065H12.927C11.8479 9.42065 10.9731 10.2954 10.9731 11.3745V38.4892C10.9731 39.5683 11.8479 40.443 12.927 40.443H23.4854C24.5645 40.443 25.4393 39.5683 25.4393 38.4892V11.3745C25.4399 10.2954 24.5645 9.42065 23.4854 9.42065Z" fill="white"/>
  <path d="M37.7366 17.1155C39.2197 17.1155 40.3789 17.6444 41.2142 18.703C42.2096 19.9559 42.7079 22.0342 42.7079 24.9372C42.7079 27.8333 42.2064 29.9147 41.2042 31.1821C40.3757 32.2262 39.2203 32.7483 37.7372 32.7483C36.2473 32.7483 35.0462 32.1756 34.1346 31.0301C33.2224 29.8847 32.7666 27.8433 32.7666 24.9059C32.7666 22.0236 33.268 19.9491 34.2703 18.6817C35.0981 17.6382 36.2535 17.1155 37.7366 17.1155ZM37.7366 19.5489C37.3815 19.5489 37.0645 19.6621 36.7863 19.8884C36.508 20.1147 36.2917 20.5199 36.1385 21.1051C35.9366 21.8642 35.8359 23.1415 35.8359 24.9372C35.8359 26.7335 35.9266 27.9677 36.1079 28.6392C36.2886 29.3113 36.5168 29.7584 36.7919 29.981C37.067 30.2036 37.3821 30.3149 37.7372 30.3149C38.0924 30.3149 38.4087 30.2017 38.6876 29.976C38.9665 29.7503 39.1822 29.3439 39.3353 28.7593C39.5373 28.0071 39.638 26.7335 39.638 24.9372C39.638 23.1409 39.5473 21.9073 39.3666 21.2352C39.1853 20.5637 38.9577 20.1147 38.6826 19.8884C38.4075 19.6621 38.0917 19.5489 37.7366 19.5489Z" fill="#333333"/>
  <path d="M55.8247 9.42065C55.6984 9.53507 55.5778 9.65199 55.4383 9.76078C54.5405 10.4604 53.7083 10.9356 52.9424 11.1863V13.8492C54.3973 13.369 55.6609 12.6275 56.7332 11.6246V22.6838H59.6674V9.42065H55.8247Z" fill="#333333"/>
  <path d="M57.2136 30.8394C55.835 30.8394 54.6864 31.1914 53.7679 31.8941C52.8488 32.5975 52.3024 33.7567 52.1279 35.3717L55.0522 35.6643C55.1078 34.8077 55.3166 34.1956 55.6787 33.8267C56.0407 33.4578 56.5277 33.2734 57.1405 33.2734C57.7601 33.2734 58.2459 33.4491 58.5973 33.8011C58.9486 34.1525 59.1243 34.6558 59.1243 35.3098C59.1243 35.9019 58.9224 36.5003 58.5185 37.1061C58.219 37.5444 57.4081 38.3803 56.0851 39.6121C55.7731 39.9015 55.4873 40.1766 55.2141 40.4442H59.1737C59.794 39.8534 60.2473 39.3788 60.523 39.0268C61.0588 38.3447 61.4502 37.692 61.6978 37.0692C61.9448 36.4459 62.0686 35.79 62.0686 35.101C62.0686 33.8893 61.6372 32.8764 60.7737 32.0623C59.9115 31.247 58.7248 30.8394 57.2136 30.8394Z" fill="#333333"/>
  <path d="M18.2068 17.1155C19.6899 17.1155 20.8491 17.6444 21.6844 18.703C22.6798 19.9559 23.1781 22.0342 23.1781 24.9372C23.1781 27.8333 22.6766 29.9147 21.6744 31.1821C20.846 32.2262 19.6905 32.7483 18.2075 32.7483C16.7175 32.7483 15.5164 32.1756 14.6048 31.0301C13.6926 29.8847 13.2368 27.8433 13.2368 24.9059C13.2368 22.0236 13.7383 19.9491 14.7405 18.6817C15.5677 17.6382 16.7231 17.1155 18.2068 17.1155ZM18.2068 19.5489C17.8517 19.5489 17.5347 19.6621 17.2565 19.8884C16.9782 20.1147 16.7619 20.5199 16.6087 21.1051C16.4068 21.8642 16.3061 23.1415 16.3061 24.9372C16.3061 26.7335 16.3968 27.9677 16.5781 28.6392C16.7588 29.3113 16.987 29.7584 17.2621 29.981C17.5372 30.2036 17.8523 30.3149 18.2075 30.3149C18.5626 30.3149 18.879 30.2017 19.1578 29.976C19.436 29.7496 19.6524 29.3439 19.8056 28.7593C20.0075 28.0071 20.1082 26.7335 20.1082 24.9372C20.1082 23.1409 20.0175 21.9073 19.8368 21.2352C19.6555 20.5637 19.4279 20.1147 19.1528 19.8884C18.8765 19.6621 18.5613 19.5489 18.2068 19.5489Z" fill="#333333"/>
  <path d="M31.9391 51.9106H28.448C28.1029 51.9106 27.8228 52.1908 27.8228 52.5359C27.8228 52.881 28.1029 53.1611 28.448 53.1611H31.9391C32.2843 53.1611 32.5644 52.881 32.5644 52.5359C32.5644 52.1908 32.2843 51.9106 31.9391 51.9106Z" fill="#333333" stroke="#333333"/>
  <path d="M11.888 48.5498H6.50219C6.15706 48.5498 5.87695 48.8299 5.87695 49.175C5.87695 49.5202 6.15706 49.8003 6.50219 49.8003H11.888C12.2331 49.8003 12.5132 49.5202 12.5132 49.175C12.5132 48.8299 12.2331 48.5498 11.888 48.5498Z" fill="#333333" stroke="#333333"/>
  <path d="M21.6419 48.5498H16.2561C15.911 48.5498 15.6309 48.8299 15.6309 49.175C15.6309 49.5202 15.911 49.8003 16.2561 49.8003H21.6419C21.987 49.8003 22.2671 49.5202 22.2671 49.175C22.2671 48.8299 21.987 48.5498 21.6419 48.5498Z" fill="#333333" stroke="#333333"/>
  <path d="M71.0003 44.3364V6.30764C71.0003 3.3809 68.6194 1 65.6926 1H9.92651C6.99977 1 4.61887 3.3809 4.61887 6.30764V44.3358C2.55809 44.7478 1 46.5704 1 48.7506V52.5352C1 52.8803 1.28011 53.1604 1.62524 53.1604H24.427C24.7721 53.1604 25.0522 52.8803 25.0522 52.5352C25.0522 52.19 24.7721 51.9099 24.427 51.9099H2.25047V48.7512C2.25047 46.9574 3.70915 45.4987 5.50296 45.4987H70.115C71.9088 45.4987 73.3674 46.9574 73.3674 48.7512V51.9105H35.5881C35.243 51.9105 34.9629 52.1907 34.9629 52.5358C34.9629 52.8809 35.243 53.161 35.5881 53.161H73.9933C74.3384 53.161 74.6185 52.8809 74.6185 52.5358V48.7512C74.6185 46.571 73.0611 44.7485 71.0003 44.3364ZM9.92651 2.25047H65.692C67.9291 2.25047 69.7492 4.07054 69.7492 6.30764V44.2476H5.86935V6.30764C5.86935 4.07054 7.68941 2.25047 9.92651 2.25047Z" fill="#333333" stroke="#333333"/>
</svg>
