<svg width="75" height="64" viewBox="0 0 75 64" fill="none" xmlns="http://www.w3.org/2000/svg">
  <path d="M71.0518 48.0528L65.254 26.3168C64.6448 24.0331 62.3079 22.6779 60.0346 23.2897L38.3965 29.1138C36.123 29.7257 34.7739 32.0731 35.3831 34.3568L41.1811 56.0928C41.7902 58.3766 44.127 59.7318 46.4004 59.1199L68.0385 53.2957C70.3118 52.6841 71.6609 50.3367 71.0518 48.0528Z" fill="#F7D145"/>
  <path d="M58.3578 35.8836C60.3798 35.8836 62.0189 34.2445 62.0189 32.2226C62.0189 30.2006 60.3798 28.5615 58.3578 28.5615C56.3359 28.5615 54.6968 30.2006 54.6968 32.2226C54.6968 34.2445 56.3359 35.8836 58.3578 35.8836Z" fill="#FFF9EB"/>
  <path d="M48.0019 53.8175C50.0238 53.8175 51.6629 52.1784 51.6629 50.1564C51.6629 48.1345 50.0238 46.4954 48.0019 46.4954C45.9799 46.4954 44.3408 48.1345 44.3408 50.1564C44.3408 52.1784 45.9799 53.8175 48.0019 53.8175Z" fill="#FFF9EB"/>
  <path d="M53.1832 44.8515C55.2052 44.8515 56.8444 43.2123 56.8444 41.1903C56.8444 39.1682 55.2052 37.5291 53.1832 37.5291C51.1612 37.5291 49.522 39.1682 49.522 41.1903C49.522 43.2123 51.1612 44.8515 53.1832 44.8515Z" fill="#FFF9EB"/>
  <path d="M74.7921 48.6859C74.7905 48.6859 74.7905 48.6843 74.7905 48.6843C74.6473 48.1522 74.1638 47.7812 73.6124 47.7812C73.5066 47.7812 73.3991 47.7959 73.2967 47.8235C72.9812 47.9065 72.719 48.1099 72.5563 48.3914C72.392 48.6746 72.3497 49.0032 72.4343 49.3173C72.5173 49.6297 72.5597 49.9487 72.5597 50.2676C72.558 51.9226 71.4419 53.3757 69.8454 53.802L45.0582 60.443C44.7475 60.526 44.4268 60.5683 44.1079 60.5699C42.453 60.5683 40.9999 59.4519 40.5752 57.8539L33.933 33.067C33.8498 32.7546 33.8075 32.4355 33.8075 32.1166C33.8075 30.4616 34.9238 29.0085 36.5217 28.5821L61.3073 21.9412C61.6181 21.8582 61.9386 21.8159 62.2576 21.8143C63.9124 21.8159 65.3657 22.9323 65.7919 24.5302L71.1699 44.6013C71.3131 45.135 71.7979 45.5061 72.3479 45.5061C72.4536 45.5061 72.5612 45.493 72.6636 45.4654C73.3144 45.2913 73.7017 44.6192 73.5276 43.97C73.5276 43.97 73.5276 43.9683 73.526 43.9683L68.1497 23.8989C67.7935 22.5743 67.0302 21.4384 65.9417 20.615C64.8857 19.8144 63.5789 19.3733 62.2576 19.3733C61.7239 19.3733 61.1918 19.4449 60.6759 19.5832L35.8903 26.2242C34.5658 26.5805 33.43 27.3455 32.6066 28.4341C31.806 29.4903 31.3667 30.7986 31.3667 32.1166C31.3667 32.6503 31.4367 33.1826 31.5766 33.7L38.2172 58.4871C38.5736 59.81 39.3369 60.946 40.4254 61.771C41.4814 62.5699 42.7882 63.0094 44.1061 63.0094H44.1077C44.64 63.0094 45.1719 62.9394 45.6895 62.8011L70.4766 56.1602C71.8013 55.8038 72.9369 55.039 73.7605 53.9504C74.5594 52.8942 75.0004 51.5876 75.0004 50.2677C75.0004 49.7355 74.9303 49.2034 74.7921 48.6859Z" fill="#333333"/>
  <path d="M59.6252 36.9392C62.2252 36.2425 63.7736 33.5603 63.077 30.9602C62.3802 28.3601 59.6984 26.8117 57.0983 27.5081C55.8389 27.8456 54.7861 28.6535 54.134 29.7828C53.482 30.9121 53.309 32.2277 53.6465 33.4871C53.9838 34.7467 54.7916 35.7995 55.921 36.4516C56.6733 36.8859 57.5079 37.1076 58.3539 37.1076C58.7778 37.1076 59.2047 37.0518 59.6252 36.9392ZM56.004 32.8553C55.8353 32.2255 55.9218 31.5677 56.2478 31.003C56.5739 30.4384 57.1001 30.0345 57.73 29.8658C57.9407 29.8093 58.1526 29.7823 58.361 29.7823C59.4386 29.7823 60.4274 30.5027 60.7193 31.5917C61.0676 32.8919 60.2933 34.2329 58.9934 34.5813C58.3635 34.7502 57.7056 34.6631 57.1413 34.3375C56.5768 34.0116 56.1728 33.4852 56.004 32.8553Z" fill="#333333"/>
  <path d="M46.7425 45.4453C44.1426 46.1421 42.5943 48.8242 43.2909 51.4243C43.6282 52.6839 44.436 53.7366 45.5654 54.3886C46.3177 54.823 47.1523 55.0448 47.9982 55.0448C48.4221 55.0448 48.8491 54.989 49.2696 54.8764C51.8695 54.1797 53.418 51.4975 52.7214 48.8973C52.0246 46.2971 49.3431 44.7484 46.7425 45.4453ZM48.6377 52.5186C48.0077 52.6873 47.3503 52.6006 46.7857 52.2747C46.221 51.9486 45.8171 51.4224 45.6484 50.7926C45.3002 49.4925 46.0744 48.1515 47.3742 47.803C48.6734 47.4547 50.0152 48.2288 50.3637 49.5289C50.7121 50.8292 49.9379 52.1702 48.6377 52.5186Z" fill="#333333"/>
  <path d="M58.065 41.1922C58.065 38.5004 55.8751 36.3103 53.1834 36.3103C50.4917 36.3103 48.3018 38.5004 48.3018 41.1922C48.3018 43.8841 50.4917 46.0742 53.1834 46.0742C55.8751 46.0742 58.065 43.8841 58.065 41.1922ZM50.7426 41.1922C50.7426 39.8464 51.8375 38.7513 53.1834 38.7513C54.5292 38.7513 55.6242 39.8462 55.6242 41.1922C55.6242 42.5381 54.5292 43.6332 53.1834 43.6332C51.8375 43.6332 50.7426 42.5383 50.7426 41.1922Z" fill="#333333"/>
  <path d="M49.3917 24.9299L31.3289 8.7961C29.4311 7.10101 26.5203 7.25681 24.8274 9.1442L8.71425 27.1079C7.02134 28.9953 7.18736 31.8995 9.08518 33.5946L27.148 49.7282C29.0459 51.4233 31.9567 51.2675 33.6496 49.3801L49.7626 31.4166C51.4556 29.5292 51.2895 26.625 49.3917 24.9299Z" fill="white"/>
  <path d="M47.7566 25.3237L31.2044 10.5419C29.4653 8.98887 26.7983 9.13117 25.2474 10.8599L10.4864 27.313C8.93551 29.0417 9.08803 31.7021 10.8271 33.2551L27.3795 48.0367C29.1186 49.5898 31.7856 49.4475 33.3364 47.7188L48.0974 31.2657C49.6483 29.537 49.4957 26.8767 47.7566 25.3237Z" fill="#F7D145"/>
  <path d="M27.0904 22.2439C28.8946 23.1565 31.0971 22.4337 32.0097 20.6295C32.9224 18.8252 32.1996 16.6227 30.3953 15.7101C28.5911 14.7975 26.3886 15.5203 25.4759 17.3245C24.5633 19.1288 25.2861 21.3313 27.0904 22.2439Z" fill="#FFF9EB"/>
  <path d="M38.0015 32.0122C39.8058 32.9248 42.0082 32.202 42.9209 30.3978C43.8335 28.5935 43.1107 26.391 41.3064 25.4784C39.5022 24.5658 37.2997 25.2886 36.3871 27.0928C35.4744 28.8971 36.1973 31.0996 38.0015 32.0122Z" fill="#FFF9EB"/>
  <path d="M17.3223 33.1572C19.1266 34.0698 21.3291 33.347 22.2417 31.5428C23.1543 29.7385 22.4315 27.5361 20.6273 26.6234C18.823 25.7108 16.6205 26.4336 15.7079 28.2378C14.7952 30.0421 15.5181 32.2446 17.3223 33.1572Z" fill="#FFF9EB"/>
  <path d="M28.2339 42.9224C30.0382 43.835 32.2407 43.1122 33.1533 41.3079C34.0659 39.5037 33.3431 37.3012 31.5389 36.3886C29.7346 35.4759 27.5321 36.1987 26.6195 38.003C25.7069 39.8072 26.4297 42.0097 28.2339 42.9224Z" fill="#FFF9EB"/>
  <path d="M27.5665 52.8818L27.5718 52.8754L27.5681 52.8826C28.7443 53.4775 30.1085 53.6753 31.4121 53.4375C32.7551 53.1941 33.949 52.525 34.8641 51.5051C35.3132 51.0029 35.2702 50.2299 34.7695 49.7814C34.689 49.7097 34.6012 49.6489 34.5054 49.6005C34.0146 49.3522 33.4137 49.4659 33.0458 49.876C31.9441 51.1095 30.1435 51.4498 28.6676 50.7051C28.3815 50.5604 28.1167 50.3772 27.8769 50.1629L8.75588 33.0489C7.52257 31.9473 7.18221 30.1467 7.92924 28.6699C8.07319 28.3853 8.2549 28.1198 8.46997 27.8785L25.5851 8.75807C26.6853 7.52388 28.4859 7.18353 29.9633 7.92902C30.2479 8.07298 30.5149 8.25542 30.7555 8.47194L49.8752 25.5853C51.1073 26.6863 51.4473 28.4869 50.7018 29.9643C50.5579 30.2489 50.3754 30.5158 50.1611 30.7557L36.3027 46.2387C36.0846 46.4821 35.9741 46.7946 35.9937 47.12C36.0111 47.4461 36.1552 47.7451 36.3973 47.9624C36.4777 48.0341 36.5655 48.0949 36.6613 48.1433C37.1521 48.3916 37.7529 48.2779 38.121 47.8678C38.1217 47.8663 38.1217 47.8663 38.1224 47.8649L51.98 32.3835C52.337 31.9842 52.6395 31.5407 52.8797 31.0659C53.4753 29.8883 53.6733 28.524 53.4356 27.2203C53.1921 25.8771 52.524 24.682 51.502 23.7675L32.3832 6.65279C31.9837 6.29574 31.5414 5.99175 31.0651 5.75085C29.889 5.15593 28.5225 4.95892 27.2195 5.19534C25.8757 5.44016 24.682 6.10935 23.7661 7.13045L6.65104 26.2507C6.29317 26.6514 5.99071 27.0947 5.75121 27.5682C5.15556 28.7458 4.95775 30.1102 5.19548 31.4139C5.43885 32.757 6.10709 33.9522 7.12818 34.8681L26.2479 51.9814C26.6471 52.3385 27.0904 52.641 27.5665 52.8818Z" fill="#333333"/>
  <path d="M32.3809 22.2329C33.2506 21.2612 33.69 20.0091 33.6179 18.7071C33.5458 17.4051 32.971 16.209 31.9994 15.3395C29.9942 13.5446 26.9017 13.7156 25.1062 15.7214C23.311 17.7272 23.4822 20.8195 25.4877 22.6147C25.8122 22.9051 26.1679 23.1475 26.5461 23.3389C27.3009 23.7206 28.146 23.8996 29.0132 23.8515C30.3154 23.7793 31.5113 23.2046 32.3809 22.2329ZM28.8785 21.4143C28.2274 21.4502 27.6015 21.2306 27.1158 20.7958C26.1131 19.8982 26.0275 18.3521 26.925 17.3491C27.6772 16.5089 28.8845 16.3125 29.8462 16.7989C30.0322 16.893 30.209 17.0127 30.3716 17.1582C30.3716 17.1582 30.3716 17.1582 30.3717 17.1583C30.8575 17.5931 31.1448 18.191 31.1809 18.8421C31.2169 19.493 30.9973 20.119 30.5624 20.6049C30.1275 21.0909 29.5294 21.3782 28.8785 21.4143Z" fill="#333333"/>
  <path d="M43.2924 32.0003C45.0877 29.9945 44.9165 26.9022 42.911 25.107C40.906 23.3118 37.8131 23.483 36.0178 25.4889C34.2226 27.4946 34.3937 30.5869 36.3993 32.3822C36.7245 32.6733 37.0782 32.9125 37.4505 33.1008C39.3734 34.0735 41.7882 33.6807 43.2924 32.0003ZM41.474 30.3724C40.5761 31.3752 39.0296 31.4606 38.0273 30.5634C37.0246 29.6658 36.939 28.1197 37.8365 27.1167C38.5887 26.2763 39.7961 26.0799 40.7577 26.5664C40.9437 26.6605 41.1206 26.7802 41.2832 26.9257C42.2858 27.8232 42.3713 29.3695 41.474 30.3724Z" fill="#333333"/>
  <path d="M22.2317 26.2522C21.2596 25.3822 20.008 24.9431 18.7061 25.0153C17.4041 25.0874 16.2081 25.6623 15.3385 26.6338C14.4688 27.6055 14.0293 28.8575 14.1014 30.1595C14.1735 31.4616 14.7483 32.6575 15.7197 33.5272C16.0451 33.8184 16.3985 34.0575 16.7709 34.2459C18.6938 35.2185 21.1088 34.8257 22.6131 33.1453C24.4086 31.1398 24.2373 28.0474 22.2317 26.2522ZM20.7946 31.5177C19.8968 32.5204 18.3502 32.6061 17.3479 31.7087C16.8621 31.2738 16.5748 30.6759 16.5387 30.0249C16.5027 29.3739 16.7224 28.7478 17.1572 28.262C17.592 27.7763 18.1902 27.4889 18.841 27.4529C19.2747 27.4288 19.697 27.5183 20.0746 27.7092C20.2638 27.8049 20.4416 27.926 20.6037 28.0713C21.6066 28.9687 21.6922 30.5147 20.7946 31.5177Z" fill="#333333"/>
  <path d="M33.1437 36.0197C31.1378 34.2248 28.0455 34.3957 26.2503 36.4015C24.4551 38.4073 24.6263 41.4995 26.6318 43.2948C26.9563 43.5852 27.312 43.8276 27.6902 44.0189C28.445 44.4007 29.2901 44.5797 30.1573 44.5316C31.4593 44.4595 32.6553 43.8846 33.5249 42.9131C35.3201 40.9073 35.1492 37.815 33.1437 36.0197ZM31.7064 41.2852C31.2716 41.7709 30.6735 42.0583 30.0226 42.0943C29.3715 42.1302 28.7456 41.9105 28.2599 41.4759C27.2572 40.5782 27.1716 39.0322 28.0691 38.0292C28.8213 37.189 30.0287 36.9926 30.9904 37.4791C31.1764 37.5732 31.3533 37.6929 31.516 37.8385L31.5158 37.8384C32.5183 38.7359 32.6039 40.2823 31.7064 41.2852Z" fill="#333333"/>
</svg>
