<svg width="45" height="46" viewBox="0 0 45 46" fill="none" xmlns="http://www.w3.org/2000/svg">
  <path d="M40.9697 5.64581L42.6345 3.981L44.2993 5.64581L42.6345 7.31063L40.9697 5.64581Z" fill="white"/>
  <path d="M12.2264 39.9524L13.8913 38.2876L15.5561 39.9524L13.8913 41.6172L12.2264 39.9524Z" fill="#F9D12F"/>
  <path d="M34.9931 13.1878C31.295 12.1632 28.3677 12.2247 26.0395 13.1449C25.5697 12.1141 25.235 10.3025 27.57 8.84301C26.4591 8.56813 25.2978 8.56936 24.1875 8.84658C24.1957 7.51457 24.3494 6.18743 24.6459 4.88881L22.2748 2.79059L19.9042 4.88881C20.2006 6.18745 20.3542 7.51458 20.3622 8.84658C19.2519 8.56938 18.0906 8.56815 16.9797 8.84301C19.315 10.3025 18.98 12.1145 18.5106 13.1449C16.1824 12.2247 13.2551 12.1632 9.55703 13.1878C6.35894 14.0739 4.11877 11.2323 4.11877 11.2323C4.11877 28.6112 19.5268 24.5543 19.5268 24.5543C20.901 25.9286 22.2752 25.7731 22.2752 25.7731C22.2752 25.7731 23.6495 25.9286 25.0237 24.5543C25.0237 24.5543 40.4317 28.6116 40.4317 11.2323C40.4313 11.2327 38.1912 14.0739 34.9931 13.1878ZM8.47105 16.8521C10.2511 16.779 12.0078 16.421 13.6746 15.7919C17.2926 14.4886 19.3246 19.2917 19.3246 19.2917C12.495 25.0004 8.47105 16.8521 8.47105 16.8521ZM25.2255 19.2917C25.2255 19.2917 27.256 14.4886 30.8751 15.7915C32.5418 16.4206 34.2986 16.7786 36.0786 16.8517C36.0786 16.8517 32.0543 25.0004 25.2255 19.2917Z" fill="#F7D145"/>
  <path d="M34.3708 31.1498C34.5625 31.1498 34.7499 31.093 34.9094 30.9865C35.0688 30.8799 35.193 30.7285 35.2664 30.5514C35.3398 30.3743 35.359 30.1793 35.3216 29.9913C35.2842 29.8032 35.1918 29.6305 35.0563 29.4949C34.9207 29.3594 34.748 29.267 34.5599 29.2296C34.3719 29.1922 34.1769 29.2114 33.9998 29.2848C33.8227 29.3582 33.6713 29.4824 33.5647 29.6418C33.4582 29.8013 33.4014 29.9887 33.4014 30.1804C33.4016 30.4375 33.5038 30.6839 33.6855 30.8657C33.8673 31.0474 34.1137 31.1496 34.3708 31.1498Z" fill="#2A1624"/>
  <path d="M34.3706 32.9556C34.1788 32.9555 33.9914 33.0123 33.8319 33.1188C33.6724 33.2253 33.5481 33.3767 33.4747 33.5538C33.4012 33.7309 33.382 33.9259 33.4193 34.1139C33.4567 34.302 33.549 34.4748 33.6846 34.6104C33.8201 34.746 33.9928 34.8384 34.1809 34.8758C34.369 34.9133 34.5639 34.8941 34.7411 34.8207C34.9182 34.7474 35.0697 34.6231 35.1762 34.4637C35.2827 34.3043 35.3396 34.1168 35.3396 33.9251C35.3394 33.6681 35.2372 33.4217 35.0556 33.2399C34.8739 33.0582 34.6275 32.9559 34.3706 32.9556Z" fill="#2A1624"/>
  <path d="M32.4987 31.0833C32.307 31.0832 32.1195 31.14 31.9601 31.2465C31.8006 31.353 31.6763 31.5043 31.6028 31.6815C31.5294 31.8586 31.5101 32.0535 31.5475 32.2416C31.5849 32.4297 31.6772 32.6025 31.8127 32.7381C31.9483 32.8737 32.121 32.9661 32.3091 33.0035C32.4971 33.0409 32.6921 33.0218 32.8692 32.9484C33.0464 32.875 33.1978 32.7508 33.3044 32.5914C33.4109 32.4319 33.4678 32.2445 33.4678 32.0527C33.4675 31.7958 33.3653 31.5495 33.1836 31.3677C33.002 31.186 32.7557 31.0837 32.4987 31.0833Z" fill="#2A1624"/>
  <path d="M36.2424 31.0833C36.0506 31.0833 35.8632 31.1402 35.7038 31.2467C35.5444 31.3532 35.4201 31.5046 35.3467 31.6818C35.2734 31.8589 35.2542 32.0538 35.2916 32.2419C35.329 32.4299 35.4213 32.6026 35.5569 32.7382C35.6925 32.8738 35.8652 32.9661 36.0532 33.0035C36.2413 33.0409 36.4362 33.0217 36.6134 32.9484C36.7905 32.875 36.9419 32.7507 37.0484 32.5913C37.1549 32.4319 37.2118 32.2445 37.2118 32.0527C37.2116 31.7957 37.1094 31.5492 36.9276 31.3675C36.7459 31.1857 36.4994 31.0835 36.2424 31.0833Z" fill="#2A1624"/>
  <path d="M3.52871 2.57769C3.72046 2.57777 3.90793 2.52098 4.0674 2.41451C4.22687 2.30803 4.35119 2.15666 4.42462 1.97953C4.49805 1.8024 4.51731 1.60747 4.47995 1.41939C4.44259 1.23132 4.35029 1.05855 4.21473 0.922932C4.07917 0.787316 3.90644 0.694949 3.71838 0.657512C3.53032 0.620074 3.33538 0.639249 3.15822 0.71261C2.98106 0.785971 2.82963 0.910224 2.7231 1.06965C2.61656 1.22908 2.55969 1.41652 2.55969 1.60827C2.56001 1.86521 2.66219 2.11155 2.84384 2.29327C3.02548 2.47499 3.27177 2.57727 3.52871 2.57769Z" fill="#2A1624"/>
  <path d="M4.49828 5.35113C4.49828 5.1594 4.44143 4.97197 4.33491 4.81255C4.22839 4.65313 4.07698 4.52888 3.89985 4.45551C3.72271 4.38213 3.52779 4.36294 3.33974 4.40034C3.15169 4.43775 2.97896 4.53007 2.84338 4.66565C2.70781 4.80123 2.61548 4.97396 2.57808 5.16201C2.54067 5.35006 2.55987 5.54497 2.63324 5.72211C2.70661 5.89925 2.83087 6.05065 2.99029 6.15717C3.14971 6.26369 3.33713 6.32055 3.52887 6.32055C3.78587 6.32023 4.03227 6.218 4.214 6.03627C4.39573 5.85453 4.49797 5.60814 4.49828 5.35113Z" fill="#2A1624"/>
  <path d="M1.65683 2.51099C1.46508 2.51091 1.27761 2.5677 1.11814 2.67417C0.958667 2.78064 0.834353 2.93202 0.760919 3.10915C0.687485 3.28628 0.66823 3.48121 0.705591 3.66929C0.742951 3.85736 0.835249 4.03013 0.970809 4.16575C1.10637 4.30136 1.2791 4.39373 1.46716 4.43117C1.65522 4.4686 1.85016 4.44943 2.02732 4.37607C2.20448 4.30271 2.35591 4.17845 2.46245 4.01903C2.56899 3.8596 2.62585 3.67215 2.62585 3.4804C2.62554 3.22346 2.52336 2.97713 2.34171 2.79541C2.16006 2.61369 1.91377 2.51141 1.65683 2.51099Z" fill="#2A1624"/>
  <path d="M5.40091 4.44983C5.59266 4.44991 5.78012 4.39312 5.93959 4.28665C6.09906 4.18017 6.22338 4.0288 6.29681 3.85166C6.37025 3.67453 6.3895 3.4796 6.35214 3.29153C6.31478 3.10345 6.22248 2.93068 6.08692 2.79506C5.95136 2.65945 5.77863 2.56708 5.59057 2.52964C5.40251 2.49221 5.20758 2.51138 5.03041 2.58474C4.85325 2.6581 4.70183 2.78236 4.59529 2.94179C4.48875 3.10121 4.43188 3.28866 4.43188 3.48041C4.4322 3.73735 4.53438 3.98368 4.71603 4.1654C4.89767 4.34713 5.14397 4.44941 5.40091 4.44983Z" fill="#2A1624"/>
  <path d="M44.7965 5.13735L43.1312 3.47209C42.9987 3.3466 42.8231 3.27667 42.6406 3.27667C42.4581 3.27667 42.2825 3.3466 42.1499 3.47209L40.4847 5.13735C40.4202 5.20175 40.369 5.27824 40.3341 5.36243C40.2992 5.44662 40.2813 5.53687 40.2812 5.62801C40.2813 5.71914 40.2992 5.80939 40.3341 5.89358C40.369 5.97777 40.4202 6.05426 40.4847 6.11866L42.1499 7.78392C42.2143 7.84841 42.2908 7.89956 42.375 7.93447C42.4592 7.96937 42.5494 7.98734 42.6406 7.98734C42.7317 7.98734 42.822 7.96937 42.9062 7.93447C42.9903 7.89956 43.0668 7.84841 43.1312 7.78392L44.7965 6.11866C44.861 6.05426 44.9121 5.97777 44.947 5.89358C44.9819 5.80939 44.9999 5.71914 44.9999 5.62801C44.9999 5.53687 44.9819 5.44662 44.947 5.36243C44.9121 5.27824 44.861 5.20175 44.7965 5.13735ZM42.6408 6.31175L41.9568 5.6286L42.6408 4.94465L43.3251 5.6286L42.6408 6.31175Z" fill="#2A1624"/>
  <path d="M14.389 37.784C14.3246 37.7195 14.2481 37.6683 14.1639 37.6334C14.0797 37.5985 13.9894 37.5806 13.8983 37.5806C13.8072 37.5806 13.7169 37.5985 13.6327 37.6334C13.5485 37.6683 13.4721 37.7195 13.4076 37.784L11.742 39.4492C11.6775 39.5136 11.6263 39.5901 11.5914 39.6743C11.5565 39.7585 11.5386 39.8488 11.5386 39.9399C11.5386 40.031 11.5565 40.1213 11.5914 40.2055C11.6263 40.2897 11.6775 40.3661 11.742 40.4306L13.4072 42.0958C13.4717 42.1603 13.5481 42.2115 13.6323 42.2464C13.7165 42.2813 13.8068 42.2992 13.8979 42.2992C13.989 42.2992 14.0793 42.2813 14.1635 42.2464C14.2477 42.2115 14.3242 42.1603 14.3886 42.0958L16.0538 40.4306C16.1183 40.3661 16.1695 40.2897 16.2044 40.2055C16.2393 40.1213 16.2572 40.031 16.2572 39.9399C16.2572 39.8488 16.2393 39.7585 16.2044 39.6743C16.1695 39.5901 16.1183 39.5136 16.0538 39.4492L14.389 37.784ZM13.8985 40.6236L13.2142 39.9397L13.8985 39.2558L14.5824 39.9397L13.8985 40.6236Z" fill="#2A1624"/>
  <path d="M7.05909 25.0709C6.87507 25.0709 6.69858 25.144 6.56846 25.2742C6.43834 25.4043 6.36523 25.5808 6.36523 25.7648V44.5501C6.36523 44.7341 6.43834 44.9106 6.56846 45.0407C6.69858 45.1708 6.87507 45.2439 7.05909 45.2439C7.24311 45.2439 7.4196 45.1708 7.54972 45.0407C7.67985 44.9106 7.75295 44.7341 7.75295 44.5501V25.7648C7.75295 25.5808 7.67985 25.4043 7.54972 25.2742C7.4196 25.144 7.24311 25.0709 7.05909 25.0709Z" fill="#2A1624"/>
  <path d="M24.5329 24.0504C23.4358 25.1478 22.3891 25.0737 22.3522 25.0705C22.3035 25.066 22.2545 25.066 22.2059 25.0705C22.1603 25.0737 21.1147 25.1498 20.0169 24.0515C19.931 23.9659 19.8243 23.9042 19.7072 23.8725C19.5902 23.8409 19.4669 23.8404 19.3496 23.8711C19.2885 23.8874 13.179 25.4456 8.94409 22.1817C6.49974 20.2976 5.12947 17.1617 4.86025 12.8471C5.54167 13.3786 6.33682 13.7451 7.18349 13.9181C8.03015 14.0911 8.90537 14.0659 9.74064 13.8443C13.1754 12.8927 15.96 12.8717 18.2541 13.7781C18.3388 13.8117 18.4293 13.8282 18.5204 13.8269C18.6115 13.8255 18.7015 13.8061 18.7851 13.77C18.8688 13.7338 18.9445 13.6816 19.0079 13.6161C19.0714 13.5507 19.1213 13.4735 19.1549 13.3887C19.1885 13.304 19.205 13.2135 19.2037 13.1224C19.2023 13.0313 19.1829 12.9413 19.1468 12.8577C19.1106 12.774 19.0584 12.6983 18.9929 12.6349C18.9275 12.5714 18.8503 12.5215 18.7655 12.4879C16.18 11.4658 13.1068 11.4725 9.37191 12.5073C8.84526 12.6539 8.29363 12.6877 7.75304 12.6065V9.77552C7.75304 9.5915 7.67994 9.41501 7.54981 9.28489C7.41969 9.15477 7.2432 9.08167 7.05918 9.08167C6.87516 9.08167 6.69867 9.15477 6.56855 9.28489C6.43843 9.41501 6.36533 9.5915 6.36533 9.77552V12.1545C5.71606 11.813 5.13837 11.3501 4.66359 10.7909C4.57442 10.6777 4.45218 10.595 4.31387 10.5544C4.17555 10.5138 4.02802 10.5173 3.89177 10.5643C3.75553 10.6114 3.63733 10.6998 3.5536 10.8171C3.46987 10.9345 3.42477 11.075 3.42456 11.2191C3.42456 16.8319 4.99664 20.8899 8.09719 23.2796C12.273 26.4983 17.8207 25.6189 19.323 25.3017C20.1242 26.0479 21.1796 26.4609 22.2745 26.4567C22.3054 26.4567 22.3451 26.4594 22.3934 26.4594C22.982 26.4383 23.5605 26.3014 24.0961 26.0565C24.6317 25.8115 25.1137 25.4634 25.5146 25.0321C25.579 24.9676 25.6301 24.8911 25.665 24.8069C25.6999 24.7228 25.7178 24.6325 25.7178 24.5414C25.7178 24.4503 25.6999 24.3601 25.665 24.2759C25.6301 24.1917 25.579 24.1152 25.5146 24.0508C25.4502 23.9863 25.3737 23.9352 25.2895 23.9003C25.2053 23.8655 25.1151 23.8475 25.0239 23.8475C24.9328 23.8475 24.8426 23.8655 24.7584 23.9003C24.6742 23.9352 24.5977 23.9863 24.5333 24.0508L24.5329 24.0504Z" fill="#2A1624"/>
  <path d="M40.6605 10.5651C40.5245 10.5176 40.3772 10.5136 40.2388 10.5535C40.1004 10.5934 39.9779 10.6753 39.8881 10.7879C39.8088 10.889 37.8799 13.2533 35.1786 12.5059C31.7652 11.5603 28.9045 11.475 26.4629 12.2458C26.2028 11.1428 26.6973 10.194 27.9387 9.41843C28.0526 9.34721 28.1434 9.24444 28.2001 9.1226C28.2567 9.00076 28.2767 8.8651 28.2578 8.73208C28.2388 8.59907 28.1816 8.47442 28.0931 8.37329C28.0047 8.27215 27.8888 8.19887 27.7595 8.16235C26.8248 7.92891 25.8551 7.8691 24.8988 7.98591C24.9618 6.99344 25.103 6.00748 25.3211 5.03722C25.3503 4.91486 25.3457 4.78686 25.3079 4.6669C25.27 4.54693 25.2003 4.43949 25.1062 4.35605L22.7355 2.25861C22.6086 2.14637 22.445 2.08441 22.2756 2.08441C22.1062 2.08441 21.9426 2.14637 21.8157 2.25861L19.4451 4.35644C19.3508 4.43989 19.281 4.5474 19.2432 4.66745C19.2053 4.78751 19.2008 4.91559 19.2302 5.03801C19.4486 6.00822 19.5898 6.9942 19.6524 7.98671C18.6961 7.86957 17.7264 7.92938 16.7918 8.16314C16.6172 8.21518 16.4701 8.33376 16.3823 8.49329C16.2944 8.65282 16.2727 8.8405 16.322 9.01584C16.3713 9.19118 16.4876 9.34011 16.6457 9.43048C16.8038 9.52086 16.9911 9.54544 17.1672 9.49892C18.1565 9.2594 19.1888 9.26076 20.1774 9.50288C20.2794 9.53113 20.3865 9.53569 20.4905 9.5162C20.5945 9.49672 20.6927 9.45372 20.7775 9.39048C20.8624 9.32724 20.9317 9.24544 20.9801 9.15133C21.0285 9.05722 21.0547 8.95329 21.0568 8.84749C21.0556 7.59711 20.9256 6.35019 20.669 5.12643L22.2756 3.70461L23.8822 5.12603C23.6256 6.34993 23.4957 7.59698 23.4944 8.84749C23.4964 8.95332 23.5226 9.05729 23.571 9.15144C23.6194 9.24559 23.6887 9.32743 23.7735 9.39068C23.8584 9.45394 23.9566 9.49693 24.0607 9.51638C24.1647 9.53583 24.2718 9.53121 24.3738 9.50288C24.8767 9.36876 25.3959 9.30629 25.9162 9.31733C25.4356 9.87458 25.1309 10.5617 25.0406 11.2921C24.9502 12.0224 25.0783 12.763 25.4087 13.4206C25.4824 13.5825 25.6156 13.7098 25.7806 13.7763C25.9456 13.8427 26.1299 13.8431 26.2952 13.7774C28.5901 12.8707 31.3759 12.8929 34.8087 13.8437C35.644 14.0652 36.5193 14.0904 37.366 13.9175C38.2127 13.7445 39.0079 13.3779 39.6895 12.8465C39.4516 16.6635 38.3493 19.5646 36.4041 21.4844C34.0252 23.8305 30.7938 24.288 28.5049 24.2575H28.4957C28.3117 24.2563 28.1348 24.3283 28.0038 24.4576C27.8729 24.5869 27.7987 24.7629 27.7975 24.947C27.7964 25.131 27.8684 25.3079 27.9977 25.4389C28.127 25.5698 28.303 25.644 28.487 25.6452H28.7103C31.2506 25.6452 34.7389 25.0766 37.3787 22.4709C39.8651 20.0166 41.1259 16.2309 41.1259 11.2185C41.1256 11.0748 41.0807 10.9347 40.9973 10.8176C40.9139 10.7006 40.7962 10.6123 40.6605 10.5651Z" fill="#2A1624"/>
  <path d="M31.1511 21.8764C34.6977 21.1282 36.6226 17.3081 36.7019 17.1455C36.754 17.0396 36.7782 16.9222 36.7723 16.8043C36.7664 16.6865 36.7306 16.5721 36.6682 16.4719C36.6059 16.3717 36.519 16.2891 36.4158 16.2318C36.3127 16.1745 36.1966 16.1444 36.0786 16.1444H36.0763C34.3779 16.0667 32.7022 15.7227 31.1106 15.125C27.7571 13.9177 25.3778 17.1376 24.5868 19.0078C24.529 19.1448 24.5168 19.2966 24.5517 19.4411C24.5867 19.5855 24.6671 19.7149 24.781 19.8103C26.5256 21.2682 28.2575 22.0021 29.9465 22.0021C30.3513 22.0022 30.755 21.96 31.1511 21.8764ZM26.095 19.0847C26.6675 18.0249 28.2836 15.5821 30.6408 16.431C32.0162 16.9313 33.4442 17.273 34.8971 17.4496C34.1747 18.4975 32.7802 20.1176 30.8592 20.5196C29.3593 20.8329 27.7579 20.3511 26.095 19.0847Z" fill="#2A1624"/>
  <path d="M13.4397 15.125C11.8486 15.7226 10.1735 16.0666 8.47567 16.1444H8.47131C8.35332 16.1444 8.23729 16.1745 8.13417 16.2318C8.03105 16.2892 7.94425 16.3718 7.88198 16.4721C7.81971 16.5723 7.78402 16.6867 7.77829 16.8046C7.77255 16.9224 7.79697 17.0398 7.84922 17.1455C7.92851 17.3077 9.85308 21.1283 13.4001 21.8765C13.7961 21.9602 14.1998 22.0025 14.6046 22.0025C16.2941 22.0025 18.0267 21.2682 19.7701 19.8108C19.8841 19.7154 19.9644 19.5859 19.9994 19.4415C20.0344 19.2971 20.0221 19.1452 19.9644 19.0083C19.173 17.1376 16.7917 13.9189 13.4397 15.125ZM13.6927 20.5197C11.7717 20.1176 10.3772 18.4976 9.65483 17.4497C11.1072 17.2728 12.5347 16.931 13.9096 16.4307C15.1327 15.991 16.2489 16.3367 17.3257 17.4873C17.767 17.9708 18.1464 18.5074 18.4549 19.0848C16.7921 20.3512 15.1914 20.8333 13.6927 20.5197Z" fill="#2A1624"/>
</svg>
